<svg width="108" height="27" viewBox="0 0 108 27" fill="none" xmlns="http://www.w3.org/2000/svg">
<path d="M28.363 9.91907H39.172V11.9311H34.916V23.2741H32.583V11.9311H28.345L28.363 9.91907ZM38.709 13.6051H40.703V15.4751H40.739C40.8159 15.1991 40.9426 14.9395 41.113 14.7091C41.295 14.4496 41.5175 14.221 41.772 14.0321C42.0263 13.8178 42.3155 13.6487 42.627 13.5321C42.9256 13.4044 43.2463 13.3365 43.571 13.3321C43.82 13.3321 43.998 13.3501 44.087 13.3501C44.1806 13.3708 44.2761 13.3829 44.372 13.3861V15.4391C44.2193 15.4054 44.0647 15.3817 43.909 15.3681C43.7554 15.3472 43.6009 15.3352 43.446 15.3321C43.0963 15.3308 42.7504 15.4037 42.431 15.5461C42.1123 15.6944 41.8275 15.9064 41.594 16.1691C41.3448 16.4773 41.1519 16.827 41.024 17.2021C40.8741 17.6619 40.8017 18.1435 40.81 18.6271V23.2191H38.673L38.709 13.6031V13.6051ZM54.165 23.2741H52.065V21.9191H52.029C51.7564 22.4141 51.349 22.8216 50.854 23.0941C50.3754 23.3825 49.8278 23.5363 49.269 23.5391C48.7682 23.5877 48.2628 23.5287 47.7868 23.3659C47.3107 23.203 46.875 22.9402 46.509 22.5951C45.8798 21.7846 45.575 20.769 45.654 19.7461V13.6051H47.791V19.5351C47.7216 20.1769 47.9005 20.821 48.291 21.3351C48.4674 21.5178 48.6812 21.6602 48.9179 21.7524C49.1546 21.8446 49.4084 21.8844 49.662 21.8691C50.0471 21.8809 50.4302 21.8078 50.784 21.6551C51.0679 21.5321 51.3183 21.3428 51.514 21.1031C51.7097 20.8571 51.8497 20.5715 51.924 20.2661C52.0109 19.924 52.0515 19.5719 52.045 19.2191V13.6051H54.182V23.2741H54.165ZM57.798 20.1741C57.8067 20.4338 57.8755 20.6881 57.999 20.9168C58.1226 21.1455 58.2975 21.3424 58.51 21.4921C58.9586 21.751 59.4702 21.8805 59.988 21.8661C60.2146 21.8641 60.4408 21.8464 60.665 21.8131C60.9087 21.7833 61.1479 21.7235 61.377 21.6351C61.5935 21.5575 61.7844 21.4219 61.929 21.2431C62.0792 21.058 62.151 20.8214 62.129 20.5841C62.1264 20.457 62.0985 20.3316 62.047 20.2154C61.9955 20.0992 61.9214 19.9944 61.829 19.9071C61.6168 19.7264 61.3762 19.5821 61.117 19.4801C60.7917 19.3632 60.4572 19.2739 60.117 19.2131C59.743 19.1421 59.369 19.0531 58.977 18.9641C58.585 18.8751 58.194 18.7641 57.82 18.6431C57.4597 18.5293 57.1215 18.3548 56.82 18.1271C56.5251 17.9149 56.2868 17.6337 56.126 17.3081C55.9362 16.927 55.8444 16.5046 55.859 16.0791C55.8385 15.6082 55.9765 15.1442 56.251 14.7611C56.5068 14.4042 56.8419 14.1116 57.23 13.9061C57.6421 13.6832 58.087 13.527 58.548 13.4431C59.0002 13.3597 59.4591 13.3179 59.919 13.3181C60.3986 13.3154 60.8769 13.3691 61.344 13.4781C61.7822 13.5721 62.199 13.7471 62.573 13.9941C62.9434 14.228 63.2543 14.5451 63.481 14.9201C63.7377 15.3358 63.8961 15.8048 63.944 16.2911H61.715C61.689 16.0763 61.6125 15.8708 61.4919 15.6913C61.3713 15.5118 61.2099 15.3633 61.021 15.2581C60.6254 15.0741 60.1931 14.9828 59.757 14.9911C59.615 14.9911 59.419 15.0091 59.223 15.0271C59.0229 15.0554 58.826 15.103 58.635 15.1691C58.4622 15.2372 58.3047 15.3392 58.172 15.4691C58.1059 15.5374 58.0541 15.6182 58.0198 15.7068C57.9854 15.7955 57.9692 15.8901 57.972 15.9851C57.967 16.1023 57.9883 16.2191 58.0346 16.327C58.0808 16.4348 58.1506 16.5309 58.239 16.6081C58.4512 16.7843 58.692 16.923 58.951 17.0181C59.2762 17.1349 59.6107 17.2242 59.951 17.2851C60.325 17.3561 60.717 17.4451 61.108 17.5341C61.499 17.6231 61.874 17.7341 62.248 17.8551C62.6098 17.965 62.9487 18.1399 63.248 18.3711C63.5389 18.5847 63.7815 18.8573 63.96 19.1711C64.1479 19.5399 64.2397 19.9503 64.227 20.3641C64.2438 20.8788 64.1073 21.387 63.835 21.8241C63.5704 22.2191 63.2243 22.5529 62.82 22.8031C62.387 23.0552 61.9189 23.2412 61.431 23.3551C60.9337 23.4659 60.4264 23.5256 59.917 23.5331C59.3459 23.5378 58.7768 23.4658 58.225 23.3191C57.7412 23.1915 57.2834 22.9807 56.872 22.6961C56.4975 22.4198 56.1928 22.0599 55.982 21.6451C55.751 21.1786 55.6293 20.6656 55.626 20.1451H57.781V20.1631L57.798 20.1741ZM64.832 13.6031H66.452V10.6831H68.589V13.5831H70.512V15.1681H68.589V20.3321C68.5904 20.5286 68.6024 20.7249 68.625 20.9201C68.6424 21.063 68.6847 21.2017 68.75 21.3301C68.8244 21.4398 68.9284 21.5262 69.05 21.5791C69.2329 21.6433 69.4261 21.6735 69.62 21.6681C69.7685 21.671 69.9171 21.6649 70.065 21.6501C70.2146 21.6351 70.3631 21.6114 70.51 21.5791V23.2351C70.279 23.2711 70.047 23.2881 69.816 23.3061C69.5859 23.3362 69.3539 23.3483 69.122 23.3421C68.6655 23.3562 68.2095 23.3023 67.769 23.1821C67.469 23.0943 67.1945 22.9355 66.969 22.7191C66.773 22.5028 66.6378 22.2385 66.577 21.9531C66.5038 21.6015 66.462 21.2441 66.452 20.8851V15.1851H64.832V13.5691V13.6031ZM72.008 13.6031H74.02V14.9191H74.056C74.3231 14.3866 74.7621 13.9599 75.302 13.7081C75.8485 13.4548 76.4447 13.327 77.047 13.3341C77.7346 13.3125 78.4176 13.453 79.041 13.7441C79.5919 13.9918 80.0746 14.3692 80.448 14.8441C80.8343 15.3282 81.1189 15.8853 81.285 16.4821C81.6525 17.7483 81.6649 19.0912 81.321 20.3641C81.1605 20.944 80.9014 21.4921 80.555 21.9841C80.2132 22.4527 79.7685 22.8365 79.255 23.1061C78.6831 23.4012 78.0463 23.548 77.403 23.5331C77.0923 23.5299 76.7825 23.5001 76.477 23.4441C76.1708 23.3905 75.8721 23.3009 75.587 23.1771C75.3038 23.0554 75.0397 22.8934 74.803 22.6961C74.5647 22.506 74.3602 22.2771 74.198 22.0191H74.162V26.8451H72.025V13.6051L72.008 13.6031ZM79.469 18.4461C79.4723 18.0183 79.4123 17.5923 79.291 17.1821C79.1886 16.7909 79.0135 16.4225 78.775 16.0961C78.5502 15.7872 78.2655 15.5267 77.938 15.3301C77.5844 15.1341 77.1851 15.0357 76.781 15.0451C76.3925 15.0205 76.004 15.0921 75.6499 15.2536C75.2958 15.4152 74.987 15.6616 74.751 15.9711C74.2701 16.7108 74.0333 17.5827 74.074 18.4641C74.0659 18.9214 74.1259 19.3774 74.252 19.8171C74.357 20.2051 74.5385 20.5682 74.786 20.8851C75.0149 21.1826 75.3069 21.4257 75.641 21.5971C75.9984 21.781 76.3961 21.8728 76.798 21.8641C77.2272 21.8773 77.6521 21.7736 78.027 21.5641C78.3542 21.367 78.6387 21.1066 78.864 20.7981C79.0857 20.4687 79.2428 20.1001 79.327 19.7121C79.4181 19.2968 79.4657 18.8732 79.469 18.4481V18.4461ZM83.225 9.91907H85.362V11.9311H83.225V9.91907ZM83.225 13.6051H85.362V23.2741H83.225V13.6051ZM87.267 9.91907H89.404V23.2741H87.267V9.91907ZM95.921 23.5411C95.2125 23.5557 94.5088 23.4222 93.855 23.1491C93.2797 22.9043 92.7591 22.547 92.324 22.0981C91.9008 21.6291 91.5794 21.0775 91.38 20.4781C91.1554 19.8187 91.0412 19.1267 91.042 18.4301C91.0324 17.7386 91.1468 17.0511 91.38 16.4001C91.5835 15.8025 91.9045 15.2517 92.324 14.7801C92.751 14.3217 93.2737 13.9629 93.855 13.7291C94.5113 13.4644 95.2133 13.3312 95.921 13.3371C96.6294 13.3225 97.3331 13.456 97.987 13.7291C98.5658 13.9674 99.0876 14.3255 99.518 14.7801C99.9411 15.2491 100.263 15.8007 100.462 16.4001C100.687 17.0533 100.801 17.7393 100.8 18.4301C100.811 19.1275 100.697 19.8212 100.462 20.4781C100.251 21.0724 99.9312 21.6219 99.518 22.0981C99.0909 22.5564 98.5682 22.9153 97.987 23.1491C97.3311 23.4154 96.6288 23.5487 95.921 23.5411ZM95.921 21.8491C96.3498 21.8578 96.7734 21.7544 97.15 21.5491C97.4907 21.3564 97.7831 21.0886 98.005 20.7661C98.2353 20.4369 98.4046 20.0691 98.505 19.6801C98.7186 18.8689 98.7186 18.0162 98.505 17.2051C98.4082 16.8148 98.2385 16.4464 98.005 16.1191C97.778 15.8055 97.4865 15.5443 97.15 15.3531C96.7726 15.1499 96.3495 15.0466 95.921 15.0531C95.4922 15.0444 95.0685 15.1478 94.692 15.3531C94.3558 15.5448 94.0644 15.806 93.837 16.1191C93.6034 16.4464 93.4338 16.8148 93.337 17.2051C93.1233 18.0162 93.1233 18.8689 93.337 19.6801C93.4338 20.0703 93.6034 20.4388 93.837 20.7661C94.0634 21.0846 94.3548 21.3515 94.692 21.5491C95.0662 21.7604 95.4915 21.8642 95.921 21.8491ZM101.441 13.6051H103.061V10.6851H105.198V13.5851H107.121V15.1701H105.198V20.3341C105.199 20.5306 105.211 20.7269 105.234 20.9221C105.251 21.065 105.294 21.2037 105.359 21.3321C105.433 21.4418 105.537 21.5282 105.659 21.5811C105.842 21.6453 106.035 21.6755 106.229 21.6701C106.378 21.673 106.526 21.6669 106.674 21.6521C106.824 21.6371 106.972 21.6134 107.119 21.5811V23.2371C106.888 23.2731 106.656 23.2901 106.425 23.3081C106.195 23.3382 105.963 23.3503 105.731 23.3441C105.275 23.3582 104.819 23.3043 104.378 23.1841C104.078 23.0963 103.804 22.9375 103.578 22.7211C103.382 22.5048 103.247 22.2405 103.186 21.9551C103.113 21.6035 103.071 21.2461 103.061 20.8871V15.1871H101.445V13.5691L101.441 13.6051Z" fill="black"/>
<path d="M25.87 9.92402H16.094L13.082 0.624023L10.058 9.92402L0.281982 9.90102L8.18798 15.653L5.16098 24.953L13.067 19.201L20.973 24.953L17.964 15.653L25.87 9.92402Z" fill="#00B67A"/>
<path d="M18.641 17.7531L17.964 15.6531L13.085 19.1971L18.641 17.7531Z" fill="#005128"/>
</svg>
